<?xml version="1.0" standalone="no"?>
<!DOCTYPE svg PUBLIC "-//W3C//DTD SVG 20010904//EN"
 "http://www.w3.org/TR/2001/REC-SVG-20010904/DTD/svg10.dtd">
<svg version="1.0" xmlns="http://www.w3.org/2000/svg"
 width="512.000000pt" height="512.000000pt" viewBox="0 0 512.000000 512.000000"
 preserveAspectRatio="xMidYMid meet">

<g transform="translate(0.000000,512.000000) scale(0.100000,-0.100000)"
fill="#000000" stroke="none">
<path d="M2351 5109 c-841 -69 -1591 -547 -2014 -1284 -141 -246 -260 -590
-302 -874 -37 -245 -36 -551 1 -792 l16 -106 176 -6 c97 -4 177 -5 179 -4 2 3
-47 134 -78 204 -10 22 -30 49 -45 60 -65 44 -84 70 -84 113 0 33 6 48 29 71
l29 29 274 0 c240 0 277 2 308 18 65 32 76 104 24 153 -25 24 -27 24 -321 29
l-295 5 -24 28 c-35 41 -33 99 5 138 l29 29 174 0 c145 0 179 3 208 18 65 32
76 104 24 153 -25 23 -32 24 -221 29 l-195 5 -24 28 c-35 41 -33 99 5 138 l29
29 324 0 c287 0 327 2 358 18 65 32 76 104 24 153 -24 22 -35 24 -171 29 -144
5 -145 5 -169 33 -35 41 -33 99 4 136 25 25 37 29 122 35 129 10 224 30 359
77 63 21 127 39 142 39 35 0 154 -42 244 -87 359 -180 617 -514 694 -901 41
-203 36 -389 -14 -589 -14 -53 -23 -98 -22 -100 2 -2 30 2 61 8 50 9 60 8 77
-7 23 -21 24 -47 3 -65 -8 -7 -54 -20 -102 -28 l-87 -16 -43 -80 c-60 -109
-123 -195 -206 -283 l-70 -74 34 6 c19 3 117 15 218 27 l182 22 21 46 c27 61
63 98 124 127 97 46 202 26 277 -52 47 -49 68 -100 68 -161 0 -70 -15 -114
-57 -163 -74 -86 -190 -113 -288 -66 -61 29 -97 66 -125 129 -18 39 -25 46
-43 42 -31 -7 -236 -32 -410 -50 -122 -12 -154 -19 -185 -39 -106 -66 -297
-146 -352 -146 -37 0 -155 42 -245 88 l-70 35 -342 1 c-189 1 -343 -1 -343 -2
0 -17 109 -207 179 -314 325 -496 831 -869 1411 -1042 241 -72 446 -100 730
-99 246 0 411 20 634 78 347 89 683 257 962 483 334 269 608 639 768 1037 23
56 49 103 72 126 l36 37 -94 4 c-72 4 -106 11 -150 31 -184 83 -279 294 -218
488 27 89 42 107 96 115 139 21 319 -74 389 -204 l23 -42 13 102 c16 129 17
461 0 593 -59 474 -251 936 -541 1300 -528 662 -1364 1023 -2209 954z m699
-289 c11 -11 20 -33 20 -50 0 -17 -9 -39 -20 -50 -11 -11 -33 -20 -50 -20 -17
0 -39 9 -50 20 -11 11 -20 33 -20 50 0 17 9 39 20 50 11 11 33 20 50 20 17 0
39 -9 50 -20z m743 -599 c13 -5 29 -22 36 -38 27 -65 -32 -120 -95 -89 -66 31
-45 129 28 135 4 1 18 -3 31 -8z m-1209 -517 c9 -8 16 -24 16 -34 0 -10 -7
-26 -16 -34 -13 -14 -53 -16 -284 -16 -231 0 -271 2 -284 16 -9 8 -16 24 -16
34 0 10 7 26 16 34 13 14 53 16 284 16 231 0 271 -2 284 -16z m-63 -194 c22
-12 26 -59 7 -78 -9 -9 -73 -12 -224 -12 -180 0 -215 2 -228 16 -19 18 -21 55
-4 72 15 15 420 17 449 2z m1963 -6 c9 -8 16 -24 16 -34 0 -10 -7 -26 -16 -34
-13 -14 -53 -16 -284 -16 -231 0 -271 2 -284 16 -9 8 -16 24 -16 34 0 10 7 26
16 34 13 14 53 16 284 16 231 0 271 -2 284 -16z m-847 -36 c79 -29 162 -112
191 -191 63 -167 -11 -348 -173 -424 -50 -23 -73 -28 -140 -28 -136 0 -238 63
-297 183 -29 58 -33 76 -33 147 0 86 11 124 57 192 82 122 253 174 395 121z
m547 -164 c9 -8 16 -24 16 -34 0 -39 -26 -50 -120 -50 -94 0 -120 11 -120 50
0 39 26 50 120 50 67 0 92 -4 104 -16z m6 -1003 c14 -27 13 -47 -6 -65 -13
-14 -53 -16 -284 -16 -231 0 -271 2 -284 16 -9 8 -16 24 -16 34 0 10 7 26 16
34 13 14 54 16 289 16 261 0 275 -1 285 -19z m-106 -197 c9 -8 16 -24 16 -34
0 -39 -27 -50 -116 -50 -100 0 -124 10 -124 48 0 45 16 52 116 52 71 0 96 -4
108 -16z m-700 -600 c9 -8 16 -24 16 -34 0 -10 -7 -26 -16 -34 -13 -14 -53
-16 -284 -16 -231 0 -271 2 -284 16 -9 8 -16 24 -16 34 0 10 7 26 16 34 13 14
53 16 284 16 231 0 271 -2 284 -16z m-296 -196 c7 -7 12 -24 12 -38 0 -43 -16
-50 -120 -50 -102 0 -120 7 -120 46 0 44 24 54 124 54 58 0 96 -4 104 -12z
m-179 -832 c47 -25 63 -83 37 -135 -35 -66 -137 -66 -172 0 -47 91 44 182 135
135z"/>
<path d="M665 2311 c-64 -28 -81 -110 -32 -158 26 -26 33 -28 117 -28 84 0 91
2 117 28 38 38 38 96 0 134 -24 25 -35 28 -105 30 -42 2 -86 -1 -97 -6z"/>
<path d="M1043 1951 c-72 -3 -134 -9 -138 -13 -13 -12 6 -65 31 -89 24 -23 32
-24 164 -24 131 0 140 1 163 23 28 27 41 64 32 93 -7 21 2 21 -252 10z"/>
<path d="M80 1944 c1 -20 52 -185 86 -276 l37 -98 342 0 343 0 7 30 c16 74
-46 120 -165 120 -57 0 -83 5 -107 19 -35 22 -99 99 -134 161 l-23 40 -86 0
c-48 0 -135 3 -193 7 -62 3 -107 2 -107 -3z"/>
</g>
</svg>
